<svg width="48" height="48" viewBox="0 0 48 48" fill="none" xmlns="http://www.w3.org/2000/svg">
<path d="M34 4H14C8.47715 4 4 8.47715 4 14V34C4 39.5228 8.47715 44 14 44H34C39.5228 44 44 39.5228 44 34V14C44 8.47715 39.5228 4 34 4Z" stroke="#25476A" stroke-width="3" stroke-linecap="round" stroke-linejoin="round"/>
<path d="M32.0004 22.7396C32.2472 24.4041 31.9629 26.1041 31.1879 27.5977C30.4129 29.0913 29.1867 30.3025 27.6836 31.059C26.1806 31.8155 24.4773 32.0788 22.816 31.8115C21.1546 31.5442 19.6199 30.7598 18.4301 29.5699C17.2402 28.3801 16.4559 26.8454 16.1885 25.1841C15.9212 23.5227 16.1845 21.8194 16.941 20.3164C17.6976 18.8133 18.9088 17.5871 20.4024 16.8121C21.896 16.0371 23.5959 15.7528 25.2604 15.9996C26.9582 16.2514 28.5301 17.0426 29.7438 18.2562C30.9575 19.4699 31.7486 21.0418 32.0004 22.7396Z" stroke="#25476A" stroke-width="3" stroke-linecap="round" stroke-linejoin="round"/>
<path d="M35 13H35.02" stroke="#25476A" stroke-width="3" stroke-linecap="round" stroke-linejoin="round"/>
</svg>
