<svg width="48" height="48" viewBox="0 0 48 48" fill="none" xmlns="http://www.w3.org/2000/svg">
<path d="M24.1031 47.6156C11.175 47.6156 0.740607 37.0688 0.796857 23.9532C0.853107 10.9594 11.3344 0.450044 24.3375 0.581294C37.0875 0.703169 47.4937 11.1563 47.3906 24.3094C47.2875 37.2281 36.9281 47.5781 24.1031 47.6156ZM24.0937 2.42817C12.4594 2.39067 2.74686 11.8688 2.63436 23.8594C2.51248 36.075 12.2719 45.6469 23.8594 45.7688C35.6625 45.8906 45.4875 36.3375 45.5437 24.2813C45.6093 12.1313 36.0281 2.42817 24.0937 2.42817Z" fill="#25476A"/>
<path d="M36.3844 13.4062C37.6406 13.2749 38.8219 14.2781 38.9063 15.5531C38.925 15.8906 38.9063 16.2374 38.9063 16.5843C38.7938 16.5843 38.7094 16.6593 38.6156 16.7249C37.5844 17.4656 36.5625 18.1968 35.5313 18.9374C32.0906 21.2999 28.65 23.6531 25.2188 26.0249C24.8625 26.2687 24.4594 26.4562 24.1781 26.8031C24.0188 26.8312 23.9156 26.7281 23.8031 26.6437C21.0282 24.7124 18.2438 22.7718 15.4688 20.8406C14.5219 20.1843 13.5844 19.5281 12.5625 18.8249C12.5625 19.0781 12.5625 19.2468 12.5625 19.4156C12.5625 22.0968 12.5625 24.7874 12.5625 27.4687C12.5625 29.8406 12.5719 32.2124 12.5813 34.5843C12.5813 34.6499 12.5719 34.7156 12.5719 34.7812C11.0157 35.0812 9.69378 34.3406 9.3469 32.9624C9.30003 32.7656 9.28128 32.5593 9.28128 32.3625C9.28128 26.8593 9.29065 21.3468 9.2719 15.8437C9.26253 14.4468 10.5094 13.2093 11.8125 13.4062C11.8594 13.4531 11.8969 13.4999 11.9438 13.5374C15.8907 16.4624 19.8375 19.3874 23.775 22.3124C24.0094 22.4906 24.15 22.4624 24.3656 22.3031C26.8219 20.4843 29.2875 18.6749 31.7438 16.8656C33.2906 15.7218 34.8375 14.5593 36.3844 13.4062Z" fill="#25476A"/>
<path d="M12.5719 34.5938C12.5625 32.222 12.5625 29.8501 12.5531 27.4782C12.5531 24.797 12.5531 22.1063 12.5531 19.4251C12.5531 19.2563 12.5531 19.097 12.5531 18.8345C13.5656 19.5376 14.5125 20.1938 15.4594 20.8501C18.2344 22.7813 21.0187 24.722 23.7937 26.6532C23.9062 26.7282 24.0094 26.8313 24.1687 26.8126C24.1875 27.0188 24.375 27.0751 24.5156 27.1688C27.7031 29.3813 30.8906 31.5751 34.0687 33.8063C34.4719 34.0876 34.9406 34.2938 35.25 34.7063C35.1562 34.8282 35.025 34.8001 34.9031 34.8001C27.5156 34.8001 20.1281 34.7907 12.7406 34.7907C12.8062 34.6969 12.8719 34.6126 12.9375 34.5188C13.1437 34.4532 13.3312 34.3688 13.4062 34.1438C13.8 34.0876 14.0344 33.8063 14.2781 33.5345C13.9406 33.6751 13.6219 33.8251 13.3875 34.1251C13.1812 34.1907 12.9937 34.2751 12.9187 34.5001C12.8062 34.5188 12.6937 34.5563 12.5719 34.5938ZM18.1875 30.8438C18.2156 30.8438 18.2437 30.8438 18.2812 30.8438C18.4031 30.7782 18.5531 30.7501 18.5625 30.5626C18.6375 30.5626 18.7125 30.5438 18.75 30.4688C18.7781 30.4407 18.8156 30.4032 18.8437 30.3751C18.9187 30.3751 18.9937 30.3563 19.0312 30.2813C19.0406 30.2626 19.0594 30.2532 19.0687 30.2345C19.05 30.2438 19.0406 30.2626 19.0219 30.272C18.9469 30.272 18.8719 30.2907 18.8344 30.3657C18.8062 30.3938 18.7687 30.4313 18.7406 30.4595C18.6656 30.4595 18.5906 30.4782 18.5531 30.5532C18.4219 30.5532 18.3281 30.6188 18.2719 30.7407C18.2437 30.7782 18.2156 30.8063 18.1875 30.8438C18.1687 30.8532 18.15 30.8626 18.1406 30.8813C18.1594 30.872 18.1781 30.8626 18.1875 30.8438ZM17.625 31.2188C17.7 31.2188 17.775 31.2001 17.8125 31.1251C17.8875 31.1157 17.9625 31.1063 17.9531 31.0126C17.9531 31.0032 17.9344 30.9845 17.925 30.9845C17.8219 30.9751 17.8125 31.0501 17.8031 31.1251C17.7281 31.1251 17.6625 31.1345 17.625 31.2188C17.5875 31.247 17.5594 31.2751 17.5219 31.3032C17.4469 31.3032 17.3719 31.322 17.3344 31.397C17.3062 31.4251 17.2687 31.4626 17.2406 31.4907C17.1656 31.4907 17.0906 31.5095 17.0531 31.5845C16.9219 31.5938 16.8281 31.6501 16.7719 31.772C16.7437 31.8001 16.7156 31.8376 16.6781 31.8657C16.6687 31.8845 16.65 31.8938 16.6406 31.9126C16.6594 31.9032 16.6687 31.8845 16.6875 31.8751C16.7625 31.8751 16.8375 31.8563 16.875 31.7813C16.9875 31.772 17.0531 31.7157 17.0625 31.5938C17.1375 31.5938 17.2125 31.5751 17.25 31.5001C17.2781 31.472 17.3156 31.4345 17.3437 31.4063C17.4187 31.4063 17.4937 31.3876 17.5312 31.3126C17.5687 31.2845 17.5969 31.2563 17.625 31.2188ZM16.125 32.2501C16.05 32.2595 15.975 32.2688 15.9844 32.372C15.9844 32.3813 16.0031 32.4001 16.0125 32.4001C16.1062 32.4001 16.1156 32.3251 16.125 32.2501C16.2094 32.2595 16.275 32.2407 16.3219 32.1657C16.3969 32.1563 16.4719 32.147 16.4625 32.0438C16.4625 32.0345 16.4437 32.0157 16.4344 32.0157C16.3312 32.0063 16.3219 32.0813 16.3125 32.1563C16.2281 32.1563 16.1625 32.1751 16.125 32.2501ZM14.8969 33.0845C14.7656 33.0938 14.6719 33.1594 14.6156 33.2719C14.55 33.2907 14.4656 33.3001 14.475 33.3938C14.475 33.4032 14.4937 33.422 14.5031 33.422C14.5969 33.4313 14.6156 33.3563 14.6344 33.2813C14.7656 33.2813 14.8969 33.2626 14.9156 33.0938C14.9906 33.0938 15.0562 33.0751 15.1031 33.0001C15.2344 32.9907 15.3281 32.9251 15.3844 32.8126C15.45 32.7938 15.5344 32.7938 15.525 32.6907C15.525 32.6813 15.5062 32.6626 15.4969 32.6626C15.3937 32.6532 15.3844 32.7282 15.375 32.8032C15.2437 32.8032 15.1125 32.8126 15.0937 32.9907C15.0094 33.0001 14.9437 33.0188 14.8969 33.0845ZM15.8156 32.5501C15.8062 32.522 15.8062 32.4845 15.7875 32.4751C15.7687 32.4657 15.7312 32.4751 15.7125 32.4938C15.6844 32.5313 15.6937 32.5782 15.75 32.5782C15.7594 32.5876 15.7875 32.5688 15.8156 32.5501Z" fill="#E6E3D6"/>
<path d="M36.3844 13.4063C34.8375 14.5595 33.2906 15.7126 31.7344 16.8657C29.2781 18.6845 26.8125 20.4845 24.3562 22.3032C24.1312 22.472 24 22.4907 23.7656 22.3126C19.8281 19.3782 15.8812 16.4626 11.9344 13.5376C11.8875 13.5001 11.85 13.4532 11.8031 13.4063C16.9219 13.4063 22.0406 13.397 27.1687 13.397C30.2344 13.4063 33.3094 13.4063 36.3844 13.4063Z" fill="#F6F4EC"/>
<path d="M35.25 34.6876C34.9406 34.2751 34.4718 34.0688 34.0687 33.7876C30.8906 31.5657 27.6937 29.3626 24.5156 27.1501C24.3843 27.0563 24.1968 27.0001 24.1687 26.7938C24.45 26.447 24.8531 26.2595 25.2093 26.0157C28.6406 23.6438 32.0812 21.2907 35.5218 18.9282C35.5218 24.2063 35.5218 29.4845 35.5312 34.7626C35.4375 34.7532 35.3437 34.7157 35.25 34.6876Z" fill="#B6B5AC"/>
<path d="M35.5406 34.7812C35.5406 29.5031 35.5406 24.225 35.5312 18.9469C36.5625 18.2062 37.5844 17.475 38.6156 16.7344C38.7 16.6687 38.7844 16.5938 38.9063 16.5938C38.9156 18.3281 38.925 20.0531 38.925 21.7875C38.925 25.1719 38.925 28.5562 38.925 31.9406C38.925 32.175 38.925 32.4093 38.9156 32.6437C38.8594 33.8062 38.2969 34.4625 37.1719 34.6781C36.6281 34.7812 36.0844 34.8468 35.5406 34.7812Z" fill="#25476A"/>
<path d="M12.9469 34.5095C12.8813 34.6032 12.8156 34.6876 12.75 34.7813C12.6844 34.7813 12.6281 34.7813 12.5625 34.7907C12.5625 34.7251 12.5719 34.6595 12.5719 34.5938C12.6938 34.5563 12.8062 34.5282 12.9281 34.4907L12.9469 34.5095Z" fill="#25476A"/>
<path d="M13.3969 34.1155C13.6312 33.8249 13.95 33.6655 14.2875 33.5249C14.0437 33.7968 13.8094 34.078 13.4156 34.1343L13.3969 34.1155Z" fill="#25476A"/>
<path d="M13.4156 34.1345C13.3312 34.3595 13.1437 34.4438 12.9469 34.5095L12.9281 34.4907C13.0031 34.2657 13.2 34.1813 13.3969 34.1157C13.3969 34.1157 13.4156 34.1345 13.4156 34.1345Z" fill="#25476A"/>
<path d="M18.5625 30.5625C18.5531 30.7406 18.3938 30.7687 18.2812 30.8438C18.2812 30.8156 18.2812 30.7781 18.2812 30.75C18.3375 30.6281 18.4313 30.5625 18.5625 30.5625Z" fill="#C5C3B9"/>
<path d="M16.7719 31.7812C16.8281 31.6594 16.9219 31.5938 17.0531 31.5938L17.0625 31.6031C17.0625 31.725 16.9969 31.7812 16.875 31.7906C16.8469 31.7812 16.8094 31.7812 16.7719 31.7812Z" fill="#C3C2B8"/>
<path d="M15.3844 32.8219C15.3281 32.9438 15.2344 33 15.1031 33.0094L15.0938 33C15.1125 32.8219 15.2438 32.8125 15.375 32.8125L15.3844 32.8219Z" fill="#25476A"/>
<path d="M14.6156 33.272C14.6719 33.1595 14.7656 33.0938 14.8969 33.0845L14.9062 33.1032C14.8875 33.2813 14.7656 33.2907 14.625 33.2907L14.6156 33.272Z" fill="#25476A"/>
<path d="M16.3031 32.1468C16.3125 32.0718 16.3312 31.9968 16.425 32.0062C16.4344 32.0062 16.4531 32.0249 16.4531 32.0343C16.4531 32.1374 16.3781 32.1374 16.3125 32.1562L16.3031 32.1468Z" fill="#25476A"/>
<path d="M16.125 32.2593C16.1156 32.3343 16.1062 32.4093 16.0031 32.4C15.9937 32.4 15.975 32.3812 15.975 32.3718C15.975 32.2593 16.05 32.2593 16.125 32.2593C16.125 32.2593 16.125 32.2499 16.125 32.2593Z" fill="#25476A"/>
<path d="M15.8156 32.55C15.7968 32.5594 15.7687 32.5875 15.7499 32.5875C15.7031 32.5782 15.6843 32.5407 15.7124 32.5031C15.7218 32.4844 15.7687 32.475 15.7874 32.4844C15.7968 32.4938 15.8062 32.5219 15.8156 32.55Z" fill="#25476A"/>
<path d="M15.3656 32.8032C15.375 32.7282 15.3937 32.6626 15.4875 32.6626C15.4968 32.6626 15.5156 32.6814 15.5156 32.6907C15.525 32.7939 15.4406 32.7939 15.375 32.8126C15.3844 32.822 15.3656 32.8032 15.3656 32.8032Z" fill="#25476A"/>
<path d="M14.6343 33.2906C14.6156 33.3656 14.6062 33.4312 14.5031 33.4312C14.4937 33.4312 14.475 33.4125 14.475 33.4031C14.4656 33.2999 14.55 33.2999 14.6156 33.2812C14.6156 33.2718 14.6343 33.2906 14.6343 33.2906Z" fill="#25476A"/>
<path d="M17.8125 31.1251C17.8219 31.0501 17.8313 30.9751 17.9344 30.9844C17.9438 30.9844 17.9625 31.0032 17.9625 31.0126C17.9625 31.1157 17.8875 31.1157 17.8125 31.1251Z" fill="#C3C2B8"/>
<path d="M18.8438 30.375C18.8813 30.3 18.9562 30.2812 19.0312 30.2812C18.9937 30.3563 18.9281 30.375 18.8438 30.375Z" fill="#C5C3B9"/>
<path d="M18.75 30.4688C18.7125 30.5438 18.6375 30.5625 18.5625 30.5625L18.5531 30.5531C18.6 30.4875 18.6656 30.4688 18.75 30.4688Z" fill="#C5C3B9"/>
<path d="M17.3438 31.4063C17.3813 31.3313 17.4563 31.3125 17.5313 31.3125L17.5406 31.3219C17.4938 31.3875 17.4281 31.4063 17.3438 31.4063C17.3438 31.4063 17.3438 31.4156 17.3438 31.4063Z" fill="#C3C2B8"/>
<path d="M17.0625 31.5938C17.1 31.5187 17.175 31.5 17.25 31.5L17.2594 31.5094C17.2125 31.5844 17.1469 31.5938 17.0625 31.5938Z" fill="#C3C2B8"/>
<path d="M16.7719 31.7812C16.8094 31.7812 16.8469 31.7812 16.875 31.7812C16.8281 31.8563 16.7625 31.875 16.6875 31.875L16.6781 31.8656C16.7156 31.8375 16.7437 31.8094 16.7719 31.7812Z" fill="#25476A"/>
<path d="M16.3125 32.1563C16.275 32.2313 16.2 32.2501 16.125 32.2501L16.1156 32.2407C16.1531 32.1657 16.2281 32.147 16.3031 32.147L16.3125 32.1563Z" fill="#25476A"/>
<path d="M14.8969 33.0845C14.9344 33.0095 15.0094 32.9907 15.0844 32.9907L15.0937 33.0001C15.0562 33.0751 14.9812 33.0939 14.9062 33.0939C14.9156 33.1033 14.8969 33.0845 14.8969 33.0845Z" fill="#25476A"/>
<path d="M17.8125 31.125C17.775 31.2 17.7094 31.2188 17.625 31.2188C17.6625 31.1344 17.7281 31.125 17.8125 31.125Z" fill="#C3C2B8"/>
<path d="M19.0312 30.2812C19.05 30.2718 19.0594 30.253 19.0781 30.2437C19.0594 30.253 19.05 30.2718 19.0312 30.2812Z" fill="#C5C3B9"/>
<path d="M18.8437 30.375C18.8156 30.4031 18.7781 30.4406 18.75 30.4688L18.7406 30.4594C18.7781 30.4312 18.8062 30.4031 18.8437 30.375Z" fill="#C5C3B9"/>
<path d="M18.2812 30.75C18.2812 30.7781 18.2812 30.8156 18.2812 30.8438C18.2531 30.8438 18.225 30.8531 18.1875 30.8438C18.2156 30.8063 18.2437 30.7781 18.2812 30.75Z" fill="#C3C2B8"/>
<path d="M18.1875 30.8438C18.1687 30.8531 18.1594 30.8719 18.1406 30.8812C18.1594 30.8719 18.1687 30.8531 18.1875 30.8438Z" fill="#C3C2B8"/>
<path d="M17.25 31.5C17.2781 31.4719 17.3156 31.4344 17.3438 31.4062L17.3531 31.4156C17.3156 31.4438 17.2875 31.4719 17.25 31.5Z" fill="#C3C2B8"/>
<path d="M16.6875 31.875C16.6687 31.8844 16.6594 31.9031 16.6406 31.9125C16.6594 31.9031 16.6687 31.8844 16.6875 31.875Z" fill="#25476A"/>
<path d="M17.625 31.2188C17.5969 31.2469 17.5594 31.2844 17.5312 31.3125L17.5219 31.3031C17.5594 31.275 17.5875 31.2469 17.625 31.2188Z" fill="#C3C2B8"/>
</svg>
